<svg width="144" height="110" viewBox="0 0 144 110" fill="none" xmlns="http://www.w3.org/2000/svg">
<path d="M41.04 0L50.4 16.9231H31.68L27.36 42.3077H15.84L20.16 16.9231H8.64L0 67.6923H23.04L20.16 84.6154H40.32L25.2 110H42.12L56.16 84.6154H87.84L101.88 110H118.8L103.68 84.6154H123.84L120.96 67.6923H144L135.36 16.9231H123.84L128.16 42.3077H116.64L112.32 16.9231H93.6L102.96 0H90.72L80.64 16.9231H63.36L53.28 0H41.04ZM42.48 33.8462H54V50.7692H42.48V33.8462ZM90.03 33.8462H101.55V50.7692H90.03V33.8462Z" fill="#F072F2"/>
</svg>
